<?xml version="1.0" standalone="no"?>
<!DOCTYPE svg PUBLIC "-//W3C//DTD SVG 20010904//EN"
 "http://www.w3.org/TR/2001/REC-SVG-20010904/DTD/svg10.dtd">
<svg version="1.0" xmlns="http://www.w3.org/2000/svg"
 width="512.000000pt" height="512.000000pt" viewBox="0 0 512.000000 512.000000"
 preserveAspectRatio="xMidYMid meet">

<g transform="translate(0.000000,512.000000) scale(0.100000,-0.100000)"
fill="#FF4D3C" stroke="none">
<path d="M1195 4671 c-33 -9 -74 -25 -90 -33 -66 -35 -153 -110 -192 -165 -25
-36 -206 -424 -474 -1018 l-434 -960 -3 -793 c-3 -881 -4 -864 63 -991 61
-116 180 -217 301 -257 57 -18 115 -19 2194 -19 2079 0 2137 1 2194 19 123 41
239 140 301 257 66 125 65 109 65 980 l0 786 -436 968 c-240 533 -450 989
-467 1015 -48 69 -124 137 -192 171 -126 62 -48 59 -1470 58 -1206 0 -1304 -2
-1360 -18z m2711 -219 c28 -13 72 -44 97 -70 43 -44 78 -116 445 -932 l398
-885 -365 -5 -366 -5 -52 -27 c-63 -33 -116 -84 -143 -137 -11 -22 -67 -166
-125 -322 -119 -317 -119 -317 -149 -341 -20 -16 -92 -18 -1084 -18 -943 0
-1065 2 -1086 15 -29 19 -39 43 -160 367 -52 141 -104 275 -116 297 -29 58
-84 109 -149 140 l-56 26 -361 5 -360 5 398 885 c351 780 403 889 441 928 45
47 79 68 142 88 32 10 307 12 1320 11 l1280 -2 51 -23z m-2918 -2137 c21 -22
57 -107 137 -320 59 -159 119 -312 133 -338 32 -60 79 -102 152 -136 l55 -26
1095 0 1095 0 55 26 c73 34 120 76 152 136 14 26 74 179 133 338 80 213 116
298 137 320 l28 30 373 0 372 0 0 -720 c0 -673 -1 -723 -18 -773 -25 -70 -101
-152 -169 -183 l-53 -24 -2105 0 -2105 0 -53 24 c-64 29 -143 112 -168 178
-18 45 -19 96 -22 762 -1 393 0 721 3 728 4 11 73 13 375 11 l370 -3 28 -30z"/>
</g>
</svg>
