<svg width="1258" height="669" viewBox="0 0 1258 669" fill="none" xmlns="http://www.w3.org/2000/svg">
<g filter="url(#filter0_d_2_2)">
<path d="M882.593 66.361H7.40743C6.49714 66.3418 5.63066 65.967 4.99369 65.3171C4.35673 64.6672 4 63.7939 4 62.8844C4 61.9749 4.35673 61.1016 4.99369 60.4517C5.63066 59.8018 6.49714 59.4271 7.40743 59.4078H882.593C883.503 59.4271 884.369 59.8018 885.006 60.4517C885.643 61.1016 886 61.9749 886 62.8844C886 63.7939 885.643 64.6672 885.006 65.3171C884.369 65.967 883.503 66.3418 882.593 66.361V66.361Z" fill="#C3C8C6"/>
<path d="M66.9842 41.657C78.2489 41.657 87.3807 32.3317 87.3807 20.8285C87.3807 9.32523 78.2489 0 66.9842 0C55.7194 0 46.5876 9.32523 46.5876 20.8285C46.5876 32.3317 55.7194 41.657 66.9842 41.657Z" fill="#C3C8C6"/>
<path d="M137.444 41.657C148.708 41.657 157.84 32.3317 157.84 20.8285C157.84 9.32523 148.708 0 137.444 0C126.179 0 117.047 9.32523 117.047 20.8285C117.047 32.3317 126.179 41.657 137.444 41.657Z" fill="#C3C8C6"/>
<path d="M207.905 41.657C219.17 41.657 228.301 32.3317 228.301 20.8285C228.301 9.32523 219.17 0 207.905 0C196.64 0 187.508 9.32523 187.508 20.8285C187.508 32.3317 196.64 41.657 207.905 41.657Z" fill="#C3C8C6"/>
<path d="M840.171 5.16235H790.119C789.127 5.18209 788.182 5.5896 787.487 6.29741C786.793 7.00522 786.404 7.95688 786.404 8.94805C786.404 9.93923 786.793 10.8909 787.487 11.5987C788.182 12.3065 789.127 12.714 790.119 12.7337H840.171C841.163 12.714 842.107 12.3065 842.802 11.5987C843.497 10.8909 843.886 9.93923 843.886 8.94805C843.886 7.95688 843.497 7.00522 842.802 6.29741C842.107 5.5896 841.163 5.18209 840.171 5.16235V5.16235Z" fill="#C3C8C6"/>
<path d="M840.169 19.3731H790.117C789.125 19.3927 788.18 19.8002 787.486 20.508C786.791 21.2158 786.402 22.1676 786.402 23.1588C786.402 24.1501 786.791 25.1018 787.486 25.8096C788.18 26.5174 789.125 26.9249 790.117 26.9445H840.169C841.161 26.9249 842.106 26.5174 842.801 25.8096C843.496 25.1018 843.885 24.1501 843.885 23.1588C843.885 22.1676 843.496 21.2158 842.801 20.508C842.106 19.8002 841.161 19.3927 840.169 19.3731V19.3731Z" fill="#C3C8C6"/>
<path d="M840.169 33.5645H790.117C789.125 33.5841 788.18 33.9915 787.486 34.6993C786.791 35.4072 786.402 36.3589 786.402 37.3502C786.402 38.3414 786.791 39.2931 787.486 40.001C788.18 40.7088 789.125 41.1163 790.117 41.1359H840.169C841.161 41.1163 842.106 40.7088 842.801 40.001C843.496 39.2931 843.885 38.3414 843.885 37.3502C843.885 36.3589 843.496 35.4072 842.801 34.6993C842.106 33.9915 841.161 33.5841 840.169 33.5645V33.5645Z" fill="#C3C8C6"/>
<path d="M71.8039 207.611C85.7305 207.611 97.0203 196.334 97.0203 182.422C97.0203 168.511 85.7305 157.233 71.8039 157.233C57.8773 157.233 46.5876 168.511 46.5876 182.422C46.5876 196.334 57.8773 207.611 71.8039 207.611Z" fill="#C3C8C6"/>
<path d="M713.942 238.2H54.0965C52.105 238.2 50.195 237.41 48.7868 236.003C47.3786 234.596 46.5876 232.688 46.5876 230.699C46.5876 228.71 47.3786 226.802 48.7868 225.395C50.195 223.988 52.105 223.198 54.0965 223.198H713.942C715.934 223.198 717.843 223.988 719.252 225.395C720.66 226.802 721.451 228.71 721.451 230.699C721.451 232.688 720.66 234.596 719.252 236.003C717.843 237.41 715.934 238.2 713.942 238.2V238.2Z" fill="#C3C8C6"/>
<path d="M540.884 267.839H54.095C52.1034 267.839 50.1934 267.049 48.7851 265.642C47.3769 264.235 46.5857 262.327 46.5857 260.338C46.5857 258.348 47.3769 256.44 48.7851 255.034C50.1934 253.627 52.1034 252.837 54.095 252.837H540.884C542.876 252.837 544.786 253.627 546.194 255.034C547.602 256.44 548.394 258.348 548.394 260.338C548.394 262.327 547.602 264.235 546.194 265.642C544.786 267.049 542.876 267.839 540.884 267.839V267.839Z" fill="#C3C8C6"/>
<path d="M71.8039 600.772C85.7305 600.772 97.0203 589.495 97.0203 575.583C97.0203 561.672 85.7305 550.394 71.8039 550.394C57.8773 550.394 46.5876 561.672 46.5876 575.583C46.5876 589.495 57.8773 600.772 71.8039 600.772Z" fill="#C3C8C6"/>
<path d="M713.941 631.361H54.0954C53.1083 631.362 52.1305 631.169 51.2181 630.793C50.3057 630.417 49.4765 629.865 48.778 629.168C48.0794 628.471 47.5253 627.644 47.1471 626.733C46.769 625.822 46.5744 624.846 46.5744 623.86C46.5744 622.874 46.769 621.898 47.1471 620.987C47.5253 620.076 48.0794 619.248 48.778 618.552C49.4765 617.855 50.3057 617.303 51.2181 616.927C52.1305 616.55 53.1083 616.358 54.0954 616.359H713.941C716.033 616.475 718.006 617.369 719.472 618.864C720.939 620.358 721.793 622.347 721.867 624.438C721.805 625.414 721.551 626.368 721.118 627.245C720.686 628.122 720.084 628.905 719.347 629.548C718.61 630.192 717.753 630.683 716.825 630.994C715.897 631.305 714.917 631.43 713.941 631.361V631.361Z" fill="#C3C8C6"/>
<path d="M540.884 661H54.095C52.1034 661 50.1934 660.21 48.7851 658.803C47.3769 657.396 46.5857 655.488 46.5857 653.499C46.5857 651.509 47.3769 649.601 48.7851 648.195C50.1934 646.788 52.1034 645.998 54.095 645.998H540.884C542.876 645.998 544.786 646.788 546.194 648.195C547.602 649.601 548.394 651.509 548.394 653.499C548.394 655.488 547.602 657.396 546.194 658.803C544.786 660.21 542.876 661 540.884 661V661Z" fill="#C3C8C6"/>
<path d="M71.8039 389.372C85.7305 389.372 97.0203 378.095 97.0203 364.183C97.0203 350.272 85.7305 338.994 71.8039 338.994C57.8773 338.994 46.5876 350.272 46.5876 364.183C46.5876 378.095 57.8773 389.372 71.8039 389.372Z" fill="#C3C8C6"/>
<path d="M713.942 419.961H54.0965C52.105 419.961 50.195 419.17 48.7868 417.764C47.3786 416.357 46.5876 414.449 46.5876 412.46C46.5876 410.471 47.3786 408.563 48.7868 407.156C50.195 405.749 52.105 404.959 54.0965 404.959H713.942C715.934 404.959 717.843 405.749 719.252 407.156C720.66 408.563 721.451 410.471 721.451 412.46C721.451 414.449 720.66 416.357 719.252 417.764C717.843 419.17 715.934 419.961 713.942 419.961V419.961Z" fill="#C3C8C6"/>
<path d="M622.052 449.599H54.095C52.1034 449.599 50.1934 448.809 48.7851 447.402C47.3769 445.996 46.5857 444.088 46.5857 442.098C46.5857 440.109 47.3769 438.201 48.7851 436.794C50.1934 435.387 52.1034 434.597 54.095 434.597H622.052C624.044 434.597 625.954 435.387 627.362 436.794C628.77 438.201 629.562 440.109 629.562 442.098C629.562 444.088 628.77 445.996 627.362 447.402C625.954 448.809 624.044 449.599 622.052 449.599V449.599Z" fill="#C3C8C6"/>
<path d="M583.503 479.239H54.095C52.1034 479.239 50.1934 478.449 48.7851 477.042C47.3769 475.635 46.5857 473.727 46.5857 471.738C46.5857 469.749 47.3769 467.841 48.7851 466.434C50.1934 465.027 52.1034 464.237 54.095 464.237H583.503C585.495 464.237 587.405 465.027 588.813 466.434C590.222 467.841 591.013 469.749 591.013 471.738C591.013 473.727 590.222 475.635 588.813 477.042C587.405 478.449 585.495 479.239 583.503 479.239V479.239Z" fill="#C3C8C6"/>
</g>
<g opacity="0.5" clip-path="url(#clip0_2_2)" filter="url(#filter1_d_2_2)">
<path d="M1111.33 239.997L490.233 329.761L532.807 624.617L1153.9 534.854L1111.33 239.997Z" fill="#C6C6C6"/>
<path d="M1097.22 267.848L511.644 352.478L547.165 598.486L1132.74 513.856L1097.22 267.848Z" fill="#878787"/>
<path d="M1108.6 223L487.508 312.763L491.32 339.161L1112.41 249.398L1108.6 223Z" fill="#B3C3FF"/>
<path d="M509.357 330.396C512.086 330.396 514.299 328.182 514.299 325.452C514.299 322.722 512.086 320.509 509.357 320.509C506.628 320.509 504.416 322.722 504.416 325.452C504.416 328.182 506.628 330.396 509.357 330.396Z" fill="#9E9E9E"/>
<path d="M527.92 327.713C530.649 327.713 532.861 325.5 532.861 322.769C532.861 320.039 530.649 317.826 527.92 317.826C525.191 317.826 522.979 320.039 522.979 322.769C522.979 325.5 525.191 327.713 527.92 327.713Z" fill="#9E9E9E"/>
<path d="M546.484 325.03C549.213 325.03 551.425 322.817 551.425 320.086C551.425 317.356 549.213 315.143 546.484 315.143C543.755 315.143 541.543 317.356 541.543 320.086C541.543 322.817 543.755 325.03 546.484 325.03Z" fill="#9E9E9E"/>
<path d="M1254 366.867H626.46V664.784H1254V366.867Z" fill="#C9C9C9"/>
<path d="M1236.06 392.414H644.405V640.976H1236.06V392.414Z" fill="#5F5F5F"/>
<path d="M1253.73 349.655H626.193V376.327H1253.73V349.655Z" fill="#4A5ECA"/>
<path d="M646.004 370.282C648.733 370.282 650.945 368.069 650.945 365.339C650.945 362.609 648.733 360.395 646.004 360.395C643.275 360.395 641.063 362.609 641.063 365.339C641.063 368.069 643.275 370.282 646.004 370.282Z" fill="#9E9E9E"/>
<path d="M664.76 370.282C667.489 370.282 669.701 368.069 669.701 365.339C669.701 362.609 667.489 360.395 664.76 360.395C662.031 360.395 659.818 362.609 659.818 365.339C659.818 368.069 662.031 370.282 664.76 370.282Z" fill="#9E9E9E"/>
<path d="M683.516 370.282C686.245 370.282 688.457 368.069 688.457 365.339C688.457 362.609 686.245 360.395 683.516 360.395C680.787 360.395 678.575 362.609 678.575 365.339C678.575 368.069 680.787 370.282 683.516 370.282Z" fill="#9E9E9E"/>
<path d="M1068.66 430.205H985.332V436.471H1068.66V430.205Z" fill="#C9C9C9"/>
<path d="M1114.01 448.6H985.332V454.866H1114.01V448.6Z" fill="#C9C9C9"/>
<path d="M1091.54 466.118H986.67V472.384H1091.54V466.118Z" fill="#C9C9C9"/>
<path d="M1046.55 485.34H985.332V491.606H1046.55V485.34Z" fill="#C9C9C9"/>
<path d="M1077.73 504.116H985.332V510.381H1077.73V504.116Z" fill="#C9C9C9"/>
<path d="M957.556 428.234H947.353V438.442H957.556V428.234Z" fill="#C9C9C9"/>
<path d="M957.556 446.629H947.353V456.837H957.556V446.629Z" fill="#C9C9C9"/>
<path d="M957.556 464.147H947.353V474.355H957.556V464.147Z" fill="#C9C9C9"/>
<path d="M957.556 483.369H947.353V493.577H957.556V483.369Z" fill="#C9C9C9"/>
<path d="M957.556 502.145H947.353V512.353H957.556V502.145Z" fill="#C9C9C9"/>
<path d="M1068.66 523.009H985.332V529.275H1068.66V523.009Z" fill="#C9C9C9"/>
<path d="M1114.01 541.403H985.332V547.669H1114.01V541.403Z" fill="#C9C9C9"/>
<path d="M1091.54 558.922H986.67V565.188H1091.54V558.922Z" fill="#C9C9C9"/>
<path d="M1046.55 578.144H985.332V584.41H1046.55V578.144Z" fill="#C9C9C9"/>
<path d="M1077.73 596.919H985.332V603.185H1077.73V596.919Z" fill="#C9C9C9"/>
<path d="M957.556 521.038H947.353V531.246H957.556V521.038Z" fill="#C9C9C9"/>
<path d="M957.556 539.432H947.353V549.64H957.556V539.432Z" fill="#C9C9C9"/>
<path d="M957.556 556.951H947.353V567.159H957.556V556.951Z" fill="#C9C9C9"/>
<path d="M957.556 576.173H947.353V586.381H957.556V576.173Z" fill="#C9C9C9"/>
<path d="M957.556 594.948H947.353V605.156H957.556V594.948Z" fill="#C9C9C9"/>
<path d="M805.056 572.159H721.729V578.425H805.056V572.159Z" fill="#C9C9C9"/>
<path d="M815.447 588.44H710.58V594.706H815.447V588.44Z" fill="#C9C9C9"/>
<path d="M817.551 493.117C817.547 502.534 815.103 511.79 810.456 519.98C805.808 528.17 799.118 535.014 791.037 539.843C782.956 544.673 773.761 547.324 764.35 547.536C754.94 547.748 745.635 545.515 737.344 541.055L737.334 541.044C728.866 536.48 721.758 529.752 716.736 521.544C711.713 513.337 708.955 503.944 708.742 494.323C708.53 484.702 710.87 475.197 715.525 466.776C720.18 458.354 726.984 451.318 735.242 446.384C743.501 441.45 752.919 438.794 762.537 438.687C772.155 438.581 781.63 441.027 789.996 445.777C798.361 450.527 805.319 457.41 810.159 465.726C815 474.042 817.55 483.494 817.551 493.117V493.117Z" fill="#C9C9C9"/>
<path d="M763.42 490.474C771.589 490.474 778.211 483.849 778.211 475.677C778.211 467.505 771.589 460.88 763.42 460.88C755.252 460.88 748.63 467.505 748.63 475.677C748.63 483.849 755.252 490.474 763.42 490.474Z" fill="#9E9E9E"/>
<path d="M788.675 521.049C772.141 526.856 754.111 526.786 737.622 520.852L737.611 520.844L748.63 499.083H778.211L788.675 521.049Z" fill="#9E9E9E"/>
</g>
<defs>
<filter id="filter0_d_2_2" x="0" y="0" width="890" height="669" filterUnits="userSpaceOnUse" color-interpolation-filters="sRGB">
<feFlood flood-opacity="0" result="BackgroundImageFix"/>
<feColorMatrix in="SourceAlpha" type="matrix" values="0 0 0 0 0 0 0 0 0 0 0 0 0 0 0 0 0 0 127 0" result="hardAlpha"/>
<feOffset dy="4"/>
<feGaussianBlur stdDeviation="2"/>
<feComposite in2="hardAlpha" operator="out"/>
<feColorMatrix type="matrix" values="0 0 0 0 0 0 0 0 0 0 0 0 0 0 0 0 0 0 0.25 0"/>
<feBlend mode="normal" in2="BackgroundImageFix" result="effect1_dropShadow_2_2"/>
<feBlend mode="normal" in="SourceGraphic" in2="effect1_dropShadow_2_2" result="shape"/>
</filter>
<filter id="filter1_d_2_2" x="91" y="223" width="1167" height="726" filterUnits="userSpaceOnUse" color-interpolation-filters="sRGB">
<feFlood flood-opacity="0" result="BackgroundImageFix"/>
<feColorMatrix in="SourceAlpha" type="matrix" values="0 0 0 0 0 0 0 0 0 0 0 0 0 0 0 0 0 0 127 0" result="hardAlpha"/>
<feOffset dy="4"/>
<feGaussianBlur stdDeviation="2"/>
<feComposite in2="hardAlpha" operator="out"/>
<feColorMatrix type="matrix" values="0 0 0 0 0 0 0 0 0 0 0 0 0 0 0 0 0 0 0.25 0"/>
<feBlend mode="normal" in2="BackgroundImageFix" result="effect1_dropShadow_2_2"/>
<feBlend mode="normal" in="SourceGraphic" in2="effect1_dropShadow_2_2" result="shape"/>
</filter>
<clipPath id="clip0_2_2">
<rect width="1159" height="718" fill="white" transform="translate(95 223)"/>
</clipPath>
</defs>
</svg>
