<svg width="68" height="68" viewBox="0 0 68 68" fill="none" xmlns="http://www.w3.org/2000/svg">
<path d="M46.75 25.5C46.75 32.5416 41.0416 38.25 34 38.25C26.9584 38.25 21.25 32.5416 21.25 25.5C21.25 18.4584 26.9584 12.75 34 12.75C41.0416 12.75 46.75 18.4584 46.75 25.5Z" fill="#585858"/>
<path fill-rule="evenodd" clip-rule="evenodd" d="M0 34C0 15.2223 15.2223 0 34 0C52.7777 0 68 15.2223 68 34C68 52.7777 52.7777 68 34 68C15.2223 68 0 52.7777 0 34ZM34 4.25C17.5695 4.25 4.25 17.5695 4.25 34C4.25 41.0271 6.68634 47.4851 10.7604 52.5755C13.7825 47.7073 20.4197 42.5 34 42.5C47.5803 42.5 54.2176 47.7073 57.2396 52.5755C61.3137 47.4851 63.75 41.0271 63.75 34C63.75 17.5695 50.4305 4.25 34 4.25Z" fill="#585858"/>
</svg>
